HIERARCHY
ROOT Hips
{
	OFFSET 0.000000 97.167313 0.000000
	CHANNELS 6 Xposition Yposition Zposition Xrotation Yrotation Zrotation
	JOINT Spine
	{
		OFFSET 0.000000 13.784798 0.064400
		CHANNELS 3 Xrotation Yrotation Zrotation
		JOINT Spine1
		{
			OFFSET 0.000000 12.037903 0.404700
			CHANNELS 3 Xrotation Yrotation Zrotation
			JOINT Spine2
			{
				OFFSET 0.000000 17.795601 0.420200
				CHANNELS 3 Xrotation Yrotation Zrotation
				JOINT Neck
				{
					OFFSET 0.000000 39.131302 11.954600
					CHANNELS 3 Xrotation Yrotation Zrotation
					JOINT Head
					{
						OFFSET 0.000000 14.456192 15.627699
						CHANNELS 3 Xrotation Yrotation Zrotation
						JOINT HeadTop_End
						{
							OFFSET 0.000000 15.703506 7.603401
							CHANNELS 3 Xrotation Yrotation Zrotation
							End Site
							{
								OFFSET 0.000000 17.447403 0.000000
							}
						}
					}
				}
				JOINT LeftShoulder
				{
					OFFSET 17.399500 24.608795 1.168800
					CHANNELS 3 Xrotation Yrotation Zrotation
					JOINT LeftArm
					{
						OFFSET 18.980635 5.765305 1.818600
						CHANNELS 3 Xrotation Yrotation Zrotation
						JOINT LeftForeArm
						{
							OFFSET 49.290169 0.000000 0.000000
							CHANNELS 3 Xrotation Yrotation Zrotation
							JOINT LeftHand
							{
								OFFSET 31.562012 0.000000 0.000000
								CHANNELS 3 Xrotation Yrotation Zrotation
								JOINT LeftHandThumb1
								{
									OFFSET 6.133995 -4.388519 7.076070
									CHANNELS 3 Xrotation Yrotation Zrotation
									JOINT LeftHandThumb2
									{
										OFFSET 6.037666 -3.485840 3.485847
										CHANNELS 3 Xrotation Yrotation Zrotation
										JOINT LeftHandThumb3
										{
											OFFSET 6.496506 -3.750763 3.750761
											CHANNELS 3 Xrotation Yrotation Zrotation
											JOINT LeftHandThumb4
											{
												OFFSET 5.616882 -3.242905 3.242910
												CHANNELS 3 Xrotation Yrotation Zrotation
												End Site
												{
													OFFSET -1.254608 7.132141 0.375429
												}
											}
										}
									}
								}
								JOINT LeftHandPinky1
								{
									OFFSET 18.920792 -0.453171 -11.426712
									CHANNELS 3 Xrotation Yrotation Zrotation
									JOINT LeftHandPinky2
									{
										OFFSET 4.919586 0.000000 0.000000
										CHANNELS 3 Xrotation Yrotation Zrotation
										JOINT LeftHandPinky3
										{
											OFFSET 5.233047 0.000000 0.000000
											CHANNELS 3 Xrotation Yrotation Zrotation
											JOINT LeftHandPinky4
											{
												OFFSET 5.571716 0.000000 0.000000
												CHANNELS 3 Xrotation Yrotation Zrotation
												End Site
												{
													OFFSET -3.459808 4.342407 -0.466164
												}
											}
										}
									}
								}
								JOINT LeftHandRing1
								{
									OFFSET 22.726120 -0.094986 -6.500475
									CHANNELS 3 Xrotation Yrotation Zrotation
									JOINT LeftHandRing2
									{
										OFFSET 6.408615 0.000000 0.000000
										CHANNELS 3 Xrotation Yrotation Zrotation
										JOINT LeftHandRing3
										{
											OFFSET 6.150223 0.000000 0.000000
											CHANNELS 3 Xrotation Yrotation Zrotation
											JOINT LeftHandRing4
											{
												OFFSET 6.145386 0.000000 0.000000
												CHANNELS 3 Xrotation Yrotation Zrotation
												End Site
												{
													OFFSET -3.671402 4.923981 -0.202372
												}
											}
										}
									}
								}
								JOINT LeftHandMiddle1
								{
									OFFSET 23.373947 0.000000 0.000001
									CHANNELS 3 Xrotation Yrotation Zrotation
									JOINT LeftHandMiddle2
									{
										OFFSET 6.996567 0.000000 0.000000
										CHANNELS 3 Xrotation Yrotation Zrotation
										JOINT LeftHandMiddle3
										{
											OFFSET 7.015945 0.000000 0.000000
											CHANNELS 3 Xrotation Yrotation Zrotation
											JOINT LeftHandMiddle4
											{
												OFFSET 7.721573 0.000000 0.000000
												CHANNELS 3 Xrotation Yrotation Zrotation
												End Site
												{
													OFFSET -4.651108 6.158463 0.251582
												}
											}
										}
									}
								}
								JOINT LeftHandIndex1
								{
									OFFSET 21.310577 -0.490082 6.209344
									CHANNELS 3 Xrotation Yrotation Zrotation
									JOINT LeftHandIndex2
									{
										OFFSET 7.536453 0.000000 0.000000
										CHANNELS 3 Xrotation Yrotation Zrotation
										JOINT LeftHandIndex3
										{
											OFFSET 7.512344 0.000000 0.000000
											CHANNELS 3 Xrotation Yrotation Zrotation
											JOINT LeftHandIndex4
											{
												OFFSET 10.212402 0.000000 0.000001
												CHANNELS 3 Xrotation Yrotation Zrotation
												End Site
												{
													OFFSET -5.180801 8.690506 1.388433
												}
											}
										}
									}
								}
							}
						}
					}
				}
				JOINT RightShoulder
				{
					OFFSET -17.399500 24.608795 1.168800
					CHANNELS 3 Xrotation Yrotation Zrotation
					JOINT RightArm
					{
						OFFSET -18.980635 5.765305 1.818600
						CHANNELS 3 Xrotation Yrotation Zrotation
						JOINT RightForeArm
						{
							OFFSET -49.290169 0.000000 0.000000
							CHANNELS 3 Xrotation Yrotation Zrotation
							JOINT RightHand
							{
								OFFSET -31.562012 0.000000 0.000000
								CHANNELS 3 Xrotation Yrotation Zrotation
								JOINT RightHandThumb1
								{
									OFFSET -6.133995 -4.388519 7.076070
									CHANNELS 3 Xrotation Yrotation Zrotation
									JOINT RightHandThumb2
									{
										OFFSET -6.037666 -3.485840 3.485847
										CHANNELS 3 Xrotation Yrotation Zrotation
										JOINT RightHandThumb3
										{
											OFFSET -6.496506 -3.750763 3.750761
											CHANNELS 3 Xrotation Yrotation Zrotation
											JOINT RightHandThumb4
											{
												OFFSET -5.616882 -3.242905 3.242910
												CHANNELS 3 Xrotation Yrotation Zrotation
												End Site
												{
													OFFSET 1.254608 7.132141 0.375429
												}
											}
										}
									}
								}
								JOINT RightHandIndex1
								{
									OFFSET -21.310577 -0.490082 6.209344
									CHANNELS 3 Xrotation Yrotation Zrotation
									JOINT RightHandIndex2
									{
										OFFSET -7.536453 0.000000 0.000000
										CHANNELS 3 Xrotation Yrotation Zrotation
										JOINT RightHandIndex3
										{
											OFFSET -7.512344 0.000000 0.000000
											CHANNELS 3 Xrotation Yrotation Zrotation
											JOINT RightHandIndex4
											{
												OFFSET -10.212402 0.000000 0.000001
												CHANNELS 3 Xrotation Yrotation Zrotation
												End Site
												{
													OFFSET 5.180801 8.690506 1.388433
												}
											}
										}
									}
								}
								JOINT RightHandMiddle1
								{
									OFFSET -23.373947 0.000000 0.000001
									CHANNELS 3 Xrotation Yrotation Zrotation
									JOINT RightHandMiddle2
									{
										OFFSET -6.996567 0.000000 0.000000
										CHANNELS 3 Xrotation Yrotation Zrotation
										JOINT RightHandMiddle3
										{
											OFFSET -7.015945 0.000000 0.000000
											CHANNELS 3 Xrotation Yrotation Zrotation
											JOINT RightHandMiddle4
											{
												OFFSET -7.721573 0.000000 0.000000
												CHANNELS 3 Xrotation Yrotation Zrotation
												End Site
												{
													OFFSET 4.651108 6.158463 0.251582
												}
											}
										}
									}
								}
								JOINT RightHandRing1
								{
									OFFSET -22.726120 -0.094986 -6.500475
									CHANNELS 3 Xrotation Yrotation Zrotation
									JOINT RightHandRing2
									{
										OFFSET -6.408615 0.000000 0.000000
										CHANNELS 3 Xrotation Yrotation Zrotation
										JOINT RightHandRing3
										{
											OFFSET -6.150223 0.000000 0.000000
											CHANNELS 3 Xrotation Yrotation Zrotation
											JOINT RightHandRing4
											{
												OFFSET -6.145386 0.000000 0.000000
												CHANNELS 3 Xrotation Yrotation Zrotation
												End Site
												{
													OFFSET 3.671402 4.923981 -0.202372
												}
											}
										}
									}
								}
								JOINT RightHandPinky1
								{
									OFFSET -18.920792 -0.453171 -11.426712
									CHANNELS 3 Xrotation Yrotation Zrotation
									JOINT RightHandPinky2
									{
										OFFSET -4.919586 0.000000 0.000000
										CHANNELS 3 Xrotation Yrotation Zrotation
										JOINT RightHandPinky3
										{
											OFFSET -5.233047 0.000000 0.000000
											CHANNELS 3 Xrotation Yrotation Zrotation
											JOINT RightHandPinky4
											{
												OFFSET -5.571716 0.000000 0.000000
												CHANNELS 3 Xrotation Yrotation Zrotation
												End Site
												{
													OFFSET 3.459808 4.342407 -0.466164
												}
											}
										}
									}
								}
							}
						}
					}
				}
			}
		}
	}
	JOINT LeftUpLeg
	{
		OFFSET 19.899099 -7.885101 -3.429500
		CHANNELS 3 Xrotation Yrotation Zrotation
		JOINT LeftLeg
		{
			OFFSET 1.745560 -36.997807 10.304700
			CHANNELS 3 Xrotation Yrotation Zrotation
			JOINT LeftFoot
			{
				OFFSET -1.745558 -29.803308 -13.615400
				CHANNELS 3 Xrotation Yrotation Zrotation
				JOINT LeftToeBase
				{
					OFFSET 1.181900 -18.539904 15.226099
					CHANNELS 3 Xrotation Yrotation Zrotation
					JOINT LeftToe_End
					{
						OFFSET -0.863701 1.402801 16.534700
						CHANNELS 3 Xrotation Yrotation Zrotation
						End Site
						{
							OFFSET 0.000000 16.616566 0.000000
						}
					}
				}
			}
		}
	}
	JOINT RightUpLeg
	{
		OFFSET -19.899099 -7.885101 -3.429500
		CHANNELS 3 Xrotation Yrotation Zrotation
		JOINT RightLeg
		{
			OFFSET -1.745560 -36.997807 10.304700
			CHANNELS 3 Xrotation Yrotation Zrotation
			JOINT RightFoot
			{
				OFFSET 1.745558 -29.803308 -13.615400
				CHANNELS 3 Xrotation Yrotation Zrotation
				JOINT RightToeBase
				{
					OFFSET -1.181900 -18.539904 15.226099
					CHANNELS 3 Xrotation Yrotation Zrotation
					JOINT RightToe_End
					{
						OFFSET 0.863701 1.402801 16.534700
						CHANNELS 3 Xrotation Yrotation Zrotation
						End Site
						{
							OFFSET 0.000000 16.616566 0.000000
						}
					}
				}
			}
		}
	}
}
MOTION
Frames: 4
Frame Time: 0.033333
1.404296 74.803299 -63.211052 104.121303 -1.430436 -0.085063 12.935762 -1.842373 2.542284 12.138946 0.430691 0.110597 12.205350 0.235270 -0.249619 -8.052146 -0.976668 0.577947 -18.903496 -4.495301 1.672523 -0.000000 -0.000000 -0.000001 2.504693 -8.503717 35.545462 -57.713548 -25.719328 -7.089807 0.000013 -37.705960 0.000004 -21.957918 7.335083 92.760861 -19.352422 -14.924447 8.345548 10.273731 14.294925 16.744409 11.174936 -21.516433 56.510677 0.000000 0.000001 -0.000001 -10.658567 30.323072 16.599438 0.082407 0.980215 -9.611121 0.081929 0.977361 -9.582942 0.000001 0.000001 -0.000000 -1.128172 12.249816 7.227414 0.079849 0.965026 -9.460669 0.099099 1.074050 -10.541701 -0.000001 -0.000002 0.000005 -0.139870 4.174759 5.669104 0.084245 0.990996 -9.717849 0.119624 1.179067 -11.586135 -0.000001 0.000000 0.000004 1.357084 -13.704602 4.000919 0.072644 0.920700 -9.022545 0.082045 0.978055 -9.589850 -0.000000 -0.000003 0.000003 5.528879 21.310619 -18.828900 -48.164431 54.516586 -8.326139 0.000014 23.418991 -0.000014 0.318922 -8.748415 -90.035540 -25.097341 4.403250 -7.691858 16.544888 -17.251728 -4.691887 19.503969 27.118067 -59.555151 0.000000 -0.000001 0.000002 -1.462877 17.095899 5.665881 0.052583 -0.698592 8.608210 0.052585 -0.698545 8.608217 -0.000001 -0.000003 -0.000001 -0.709764 7.230102 4.891193 0.053906 -0.707307 8.716650 0.079474 -0.857594 10.588389 0.000000 0.000000 -0.000004 0.068795 -2.721407 5.386807 0.041122 -0.618184 7.611389 0.065435 -0.778739 9.605075 0.000000 -0.000000 -0.000002 0.561787 -17.854255 1.289065 0.052574 -0.698566 8.608207 0.051521 -0.691502 8.520421 -0.000000 -0.000000 0.000002 -76.070884 -2.992631 1.343059 8.436597 1.556924 0.602069 -21.613249 0.874018 4.367470 -16.178483 -0.000003 0.000003 -0.000000 -0.000000 -0.000000 -78.030246 -13.401974 -6.313210 2.666806 5.845655 5.420227 -21.286585 12.412258 3.624545 -15.080445 0.000008 0.000002 0.000000 0.000000 -0.000000 
1.552361 74.697037 -63.046165 103.896104 -1.244717 -0.043049 12.859732 -1.960032 2.544114 12.054382 0.523617 0.068050 12.122853 0.307151 -0.301076 -8.471515 -0.999398 0.549690 -19.011371 -4.483066 1.122711 0.000000 0.000000 -0.000000 3.088983 -9.890701 35.512554 -57.339295 -25.703534 -6.662364 -0.000002 -37.287775 -0.000004 -21.226951 6.802652 92.786132 -19.251889 -14.948654 8.329509 10.272462 14.293730 16.744414 11.175364 -21.516301 56.512179 0.000000 -0.000000 -0.000001 -10.547226 30.296697 16.586213 0.082423 0.980248 -9.611493 0.081931 0.977363 -9.582944 0.000001 0.000003 -0.000000 -1.122846 12.211577 7.220409 0.079492 0.962858 -9.439413 0.099084 1.073957 -10.540804 -0.000002 0.000003 0.000005 -0.136084 4.137385 5.663295 0.084121 0.990270 -9.710898 0.119604 1.178968 -11.585048 0.000001 0.000001 0.000001 1.360240 -13.742283 3.997385 0.073056 0.923272 -9.048017 0.082033 0.978015 -9.589353 -0.000000 0.000001 0.000001 5.520630 21.374782 -18.672930 -47.872905 54.118335 -7.962853 0.000005 23.356493 -0.000011 0.312493 -8.806889 -89.657469 -25.269866 4.696576 -7.964422 16.523476 -17.101470 -4.697782 18.887997 26.535881 -59.346919 0.000000 0.000001 0.000002 -1.266115 17.180427 4.719367 0.051975 -0.694555 8.558296 0.051608 -0.692113 8.528059 -0.000000 -0.000001 -0.000001 -0.570912 7.288637 4.061461 0.053279 -0.703157 8.665215 0.078652 -0.853243 10.534044 0.000001 0.000000 -0.000004 0.067339 -2.708028 4.691538 0.040580 -0.614177 7.561475 0.064757 -0.774732 9.555149 -0.000000 -0.000001 -0.000000 0.419598 -17.920927 0.745851 0.051967 -0.694547 8.558300 0.050760 -0.686456 8.457709 -0.000002 0.000001 0.000002 -75.664972 -2.950615 0.897569 8.343271 1.569191 0.711512 -21.730088 0.815049 4.601130 -15.719989 -0.000001 0.000001 0.000000 -0.000000 0.000000 -77.605354 -13.563722 -6.708677 2.582579 5.488642 5.322727 -21.821090 12.765426 4.199731 -15.336730 0.000005 0.000000 -0.000000 0.000000 0.000000 
1.749932 74.581558 -62.908981 103.664274 -1.020324 -0.077836 12.708942 -2.136970 2.570529 11.900498 0.608667 0.033089 11.971415 0.368126 -0.357643 -8.922510 -1.064430 0.738392 -19.169957 -4.346354 0.405869 -0.000003 -0.000000 0.000000 4.025543 -12.053817 35.760278 -56.412124 -24.960663 -5.652067 0.000001 -37.074376 -0.000010 -20.440446 6.120930 92.818439 -19.143082 -14.965875 8.316752 10.271236 14.292525 16.744417 11.175807 -21.516170 56.513853 0.000000 -0.000000 -0.000001 -10.429143 30.278017 16.574330 0.082418 0.980286 -9.611751 0.081924 0.977364 -9.582943 0.000002 -0.000001 -0.000002 -1.118422 12.180170 7.214364 0.079119 0.960596 -9.417075 0.099062 1.073888 -10.539861 -0.000002 0.000000 0.000003 -0.132985 4.106960 5.658068 0.084007 0.989591 -9.703997 0.119579 1.178849 -11.583966 0.000001 -0.000000 0.000004 1.362954 -13.772957 3.994096 0.073505 0.926129 -9.076007 0.082031 0.977948 -9.588839 -0.000001 0.000003 0.000002 5.485535 21.162583 -18.764989 -47.160930 53.571926 -7.546276 -0.000006 23.342141 -0.000010 -0.338012 -9.333796 -88.700764 -25.696312 5.410764 -8.729601 16.470880 -16.769026 -4.721420 17.122692 24.908757 -58.623814 -0.000000 0.000000 0.000002 -0.417370 17.396516 2.189956 0.051366 -0.690509 8.508148 0.049433 -0.677412 8.345796 -0.000000 -0.000003 -0.000002 -0.211816 7.390239 1.934800 0.052641 -0.699010 8.613552 0.077727 -0.848205 10.471282 0.000000 0.000001 0.000001 0.064032 -2.713799 2.916202 0.040045 -0.610127 7.511326 0.064083 -0.770697 9.504994 -0.000001 -0.000000 -0.000002 0.044651 -18.121175 -0.660686 0.051365 -0.690498 8.508139 0.049714 -0.679363 8.369826 -0.000000 -0.000000 0.000002 -75.342806 -2.940201 0.492203 8.322199 1.459345 0.798842 -21.723290 0.808933 4.554371 -15.270578 0.000270 -0.189928 -0.000000 -0.000000 0.000000 -77.187695 -13.784556 -7.181910 2.513424 5.227815 5.359688 -22.388631 13.008748 4.667805 -15.618044 0.000000 -0.000004 0.000001 0.000001 0.000000 
1.992286 74.301804 -62.850128 103.343487 -0.885098 -0.231831 12.471960 -2.344434 2.603233 11.674101 0.531982 0.026975 11.742852 0.280421 -0.375531 -9.205522 -1.092452 0.800864 -19.583109 -4.364198 0.271808 -0.000002 0.000000 -0.000000 4.782487 -13.818082 35.786827 -55.470227 -24.708892 -5.141644 -0.000005 -36.396586 -0.000002 -19.538296 5.991196 92.824566 -19.018974 -15.003062 8.292570 10.270041 14.291268 16.744400 11.176347 -21.516026 56.515728 0.000000 0.000001 -0.000001 -10.288424 30.237838 16.553698 0.082429 0.980274 -9.611867 0.081926 0.977346 -9.582942 0.000001 0.000002 -0.000002 -1.110756 12.124680 7.204468 0.078683 0.957943 -9.390807 0.099043 1.073762 -10.538907 0.000001 -0.000000 0.000005 -0.127470 4.052494 5.649412 0.083863 0.988727 -9.695500 0.119556 1.178759 -11.582893 0.000001 0.000002 0.000004 1.367241 -13.827685 3.987635 0.074024 0.929292 -9.107707 0.082013 0.977916 -9.588290 -0.000000 0.000001 0.000001 5.407870 20.694531 -18.993802 -48.185653 53.254080 -4.856111 0.000005 23.374094 0.000007 0.656216 -9.584124 -88.048740 -25.633399 5.326034 -8.566610 16.477912 -16.782236 -4.710959 17.482159 25.241159 -58.776073 -0.000000 0.000000 0.000001 -0.330636 17.365520 1.933430 0.050761 -0.686476 8.457762 0.048710 -0.672489 8.284638 -0.000001 -0.000001 -0.000002 -0.205269 7.326201 1.903449 0.052009 -0.694834 8.561653 0.076998 -0.844259 10.421975 0.000000 0.000001 -0.000004 0.070515 -2.806685 3.277701 0.039511 -0.606042 7.460962 0.063408 -0.766662 9.454610 -0.000000 0.000000 -0.000005 0.372945 -18.283129 0.529516 0.050763 -0.686471 8.457769 0.049372 -0.677073 8.341226 0.000000 -0.000002 0.000005 -75.434378 -2.877710 0.307464 9.310951 1.058653 0.767653 -22.082546 0.811026 4.246169 -15.059876 0.008000 -1.037168 -0.000000 -0.000000 -0.000000 -76.973432 -14.049409 -7.701578 3.121153 5.215859 5.611150 -23.239242 13.062359 4.890641 -15.845528 -0.000004 0.000000 0.000002 0.000000 -0.000000 
